<?xml version="1.0" standalone="no"?>
<!DOCTYPE svg PUBLIC "-//W3C//DTD SVG 20010904//EN"
 "http://www.w3.org/TR/2001/REC-SVG-20010904/DTD/svg10.dtd">
<svg version="1.0" xmlns="http://www.w3.org/2000/svg"
 width="500.000000pt" height="500.000000pt" viewBox="0 0 500.000000 500.000000"
 preserveAspectRatio="xMidYMid meet">

<g transform="translate(0.000000,500.000000) scale(0.100000,-0.100000)"
fill="#000000" stroke="none">
<path d="M0 2500 l0 -2500 2500 0 2500 0 0 2500 0 2500 -2500 0 -2500 0 0
-2500z m2259 859 c1 -31 -6 -35 -82 -44 -55 -7 -66 -16 -49 -42 5 -8 21 -9 52
-3 25 5 48 6 51 4 4 -2 9 -19 11 -39 4 -34 4 -34 -48 -45 -45 -10 -51 -14 -47
-31 5 -17 11 -20 37 -15 115 20 114 20 118 -9 2 -21 18 10 67 129 l65 156 52
0 51 0 64 -166 c35 -91 65 -162 66 -157 2 4 18 75 37 156 18 81 35 150 37 152
3 2 26 -1 52 -7 l47 -10 27 -89 c15 -49 31 -89 34 -89 4 0 10 17 13 38 4 20
12 54 17 75 l10 39 42 -7 c23 -4 46 -10 50 -14 7 -7 -57 -318 -68 -329 -3 -3
-26 -1 -52 4 l-46 9 -28 88 c-15 49 -29 91 -32 93 -3 3 -13 -30 -22 -73 -10
-43 -19 -79 -20 -81 -1 -1 -22 2 -46 7 -24 5 -70 12 -102 16 -53 6 -60 9 -69
36 -9 27 -13 29 -67 29 -54 0 -57 -2 -68 -30 -10 -26 -16 -30 -48 -30 -67 0
-312 -50 -416 -85 -119 -41 -119 -40 -119 -17 0 11 -7 6 -20 -15 -30 -49 -113
-93 -178 -93 -29 0 -66 7 -82 15 -62 32 -109 130 -96 200 13 70 120 155 195
155 23 0 34 -8 50 -36 12 -20 21 -37 19 -38 -2 -1 -25 -7 -51 -14 -84 -21
-117 -59 -103 -117 21 -84 125 -86 189 -3 l25 31 22 -34 c12 -19 20 -27 18
-19 -3 8 -24 73 -48 143 -23 71 -40 129 -39 131 9 5 93 36 94 33 1 -1 19 -53
40 -115 20 -62 42 -115 49 -118 6 -2 37 4 69 15 37 13 57 16 57 9 0 -6 2 -9 5
-7 2 3 -6 63 -19 134 -13 72 -22 132 -19 135 2 3 57 14 121 26 128 22 130 22
131 -37z m902 -67 l37 -17 -58 -153 c-32 -85 -61 -156 -64 -159 -5 -5 -96 25
-96 31 0 5 112 300 116 308 8 12 25 9 65 -10z m251 -108 c37 -18 98 -73 98
-87 0 -5 -9 -25 -21 -43 l-20 -33 -35 34 c-18 19 -52 40 -74 46 -36 11 -44 10
-68 -8 -38 -28 -51 -83 -28 -118 19 -29 71 -55 117 -58 34 -2 34 -5 12 -52
-19 -40 -35 -43 -105 -19 -103 35 -163 129 -138 217 15 54 62 114 104 133 38
17 112 12 158 -12z m-547 -468 l360 -124 3 -371 2 -371 -255 0 -255 0 0 45 c0
35 -15 77 -70 191 -68 143 -70 149 -70 225 0 68 -3 81 -20 91 -19 12 -27 48
-14 60 3 4 21 -11 40 -32 32 -35 104 -67 119 -52 12 13 3 33 -19 42 -31 12
-66 49 -66 71 0 18 22 23 115 31 23 2 31 9 33 27 2 13 0 27 -5 31 -4 5 -82 16
-172 26 -138 15 -172 16 -225 5 -75 -16 -86 -24 -86 -67 0 -35 8 -43 55 -59
18 -6 33 -20 39 -38 8 -23 7 -30 -12 -43 -19 -13 -22 -24 -22 -92 0 -76 -1
-78 -50 -152 l-50 -75 0 -117 0 -118 -235 0 -235 0 2 373 3 372 355 122 c195
67 360 122 365 122 6 0 172 -55 370 -123z"/>
<path d="M2467 3267 l-16 -47 30 0 c32 0 34 7 15 60 l-13 34 -16 -47z"/>
</g>
</svg>
